0
SECTION
2
HEADER
9
$INSUNITS
70
4
0
ENDSEC
0
SECTION
2
TABLES
0
TABLE
2
LAYER
70
3
0
LAYER
2
UPPER_PROFILE
70
0
62
1
6
CONTINUOUS
0
LAYER
2
LOWER_PROFILE
70
0
62
5
6
CONTINUOUS
0
LAYER
2
CENTERLINE
70
0
62
3
6
CONTINUOUS
0
ENDTAB
0
ENDSEC
0
SECTION
2
ENTITIES
0
LWPOLYLINE
8
UPPER_PROFILE
90
41
70
0
10
0.000000
20
0.000000
10
50.000000
20
49.186888
10
100.000000
20
67.202083
10
150.000000
20
79.311475
10
200.000000
20
87.988181
10
250.000000
20
94.185721
10
300.000000
20
98.373777
10
350.000000
20
100.803125
10
400.000000
20
101.600000
10
450.000000
20
101.600000
10
500.000000
20
101.600000
10
550.000000
20
101.600000
10
600.000000
20
101.600000
10
650.000000
20
101.600000
10
700.000000
20
101.600000
10
750.000000
20
101.600000
10
800.000000
20
101.600000
10
850.000000
20
101.600000
10
900.000000
20
101.600000
10
950.000000
20
101.600000
10
1000.000000
20
101.600000
10
1050.000000
20
101.600000
10
1100.000000
20
101.600000
10
1150.000000
20
101.600000
10
1200.000000
20
101.600000
10
1250.000000
20
101.600000
10
1300.000000
20
101.600000
10
1350.000000
20
101.600000
10
1400.000000
20
101.600000
10
1450.000000
20
101.600000
10
1500.000000
20
101.600000
10
1550.000000
20
101.600000
10
1600.000000
20
101.600000
10
1650.000000
20
100.803125
10
1700.000000
20
98.373777
10
1750.000000
20
94.185721
10
1800.000000
20
87.988181
10
1850.000000
20
79.311475
10
1900.000000
20
67.202083
10
1950.000000
20
49.186888
10
2000.000000
20
0.000000
0
LWPOLYLINE
8
LOWER_PROFILE
90
41
70
0
10
0.000000
20
0.000000
10
50.000000
20
-49.186888
10
100.000000
20
-67.202083
10
150.000000
20
-79.311475
10
200.000000
20
-87.988181
10
250.000000
20
-94.185721
10
300.000000
20
-98.373777
10
350.000000
20
-100.803125
10
400.000000
20
-101.600000
10
450.000000
20
-101.600000
10
500.000000
20
-101.600000
10
550.000000
20
-101.600000
10
600.000000
20
-101.600000
10
650.000000
20
-101.600000
10
700.000000
20
-101.600000
10
750.000000
20
-101.600000
10
800.000000
20
-101.600000
10
850.000000
20
-101.600000
10
900.000000
20
-101.600000
10
950.000000
20
-101.600000
10
1000.000000
20
-101.600000
10
1050.000000
20
-101.600000
10
1100.000000
20
-101.600000
10
1150.000000
20
-101.600000
10
1200.000000
20
-101.600000
10
1250.000000
20
-101.600000
10
1300.000000
20
-101.600000
10
1350.000000
20
-101.600000
10
1400.000000
20
-101.600000
10
1450.000000
20
-101.600000
10
1500.000000
20
-101.600000
10
1550.000000
20
-101.600000
10
1600.000000
20
-101.600000
10
1650.000000
20
-100.803125
10
1700.000000
20
-98.373777
10
1750.000000
20
-94.185721
10
1800.000000
20
-87.988181
10
1850.000000
20
-79.311475
10
1900.000000
20
-67.202083
10
1950.000000
20
-49.186888
10
2000.000000
20
0.000000
0
LINE
8
CENTERLINE
10
0.000000
20
0.000000
11
2000.000000
21
0.000000
0
ENDSEC
0
EOF
